<svg xmlns="http://www.w3.org/2000/svg" height="512pt" version="1.1" viewBox="0 -43 512.00002 512" width="512pt">
<g id="surface1">
<path d="M 266.214844 180.675781 C 230.03125 180.675781 200.492188 210.09375 200.492188 246.152344 C 200.492188 282.214844 229.90625 311.628906 266.214844 311.628906 C 284.0625 311.628906 300.308594 304.492188 312.121094 292.921875 C 312.246094 292.796875 312.367188 292.675781 312.492188 292.550781 C 312.613281 292.429688 312.859375 292.304688 312.984375 292.058594 C 324.675781 280.246094 331.9375 264 331.9375 246.152344 C 331.9375 210.09375 302.398438 180.675781 266.214844 180.675781 Z M 266.214844 180.675781 " style=" stroke:none;fill-rule:nonzero;fill:rgb(0%,0%,0%);fill-opacity:1;" />
<path d="M 236.429688 67.691406 L 192.863281 13.90625 C 185.847656 5.292969 175.382812 0 164.308594 0 L 37.292969 0 C 16.863281 0 0 17.109375 0 37.539062 L 0 388.429688 C 0 408.738281 16.863281 425.96875 37.292969 425.96875 L 43.078125 425.96875 L 43.078125 124.183594 C 43.078125 92.921875 69.046875 67.691406 100.183594 67.691406 Z M 236.429688 67.691406 " style=" stroke:none;fill-rule:nonzero;fill:rgb(0%,0%,0%);fill-opacity:1;" />
<path d="M 474.707031 87.382812 L 100.183594 87.382812 C 79.875 87.382812 62.769531 103.875 62.769531 124.183594 L 62.769531 425.847656 L 474.707031 425.847656 C 495.015625 425.847656 512 408.738281 512 388.308594 L 512 124.183594 C 512 103.878906 495.136719 87.382812 474.707031 87.382812 Z M 370.832031 350.523438 C 368.863281 352.492188 366.398438 353.476562 363.816406 353.476562 C 361.355469 353.476562 358.769531 352.492188 356.921875 350.644531 L 319.140625 313.109375 C 304.617188 324.554688 286.152344 331.445312 266.214844 331.445312 C 219.078125 331.445312 180.800781 293.292969 180.800781 246.277344 C 180.800781 199.261719 219.078125 161.105469 266.214844 161.105469 C 313.351562 161.105469 351.628906 199.261719 351.628906 246.277344 C 351.628906 266.214844 344.738281 284.675781 333.046875 299.199219 L 370.707031 336.738281 C 374.644531 340.429688 374.644531 346.707031 370.832031 350.523438 Z M 370.832031 350.523438 " style=" stroke:none;fill-rule:nonzero;fill:rgb(0%,0%,0%);fill-opacity:1;" />
</g>
</svg>